<?xml version="1.0" encoding="iso-8859-1"?>
<!-- Generator: Adobe Illustrator 19.0.0, SVG Export Plug-In . SVG Version: 6.00 Build 0)  -->
<svg xmlns="http://www.w3.org/2000/svg" xmlns:xlink="http://www.w3.org/1999/xlink" version="1.1" id="Capa_1" x="0px" y="0px" viewBox="0 0 512.001 512.001" style="enable-background:new 0 0 512.001 512.001;" xml:space="preserve" width="512px" height="512px">
<g>
	<g>
		<path d="M245.832,248.832c-3.743-1.776-8.216-0.183-9.992,3.559c-8.541,17.991-23.264,32.348-41.453,40.423    c-3.787,1.68-5.493,6.112-3.812,9.897c1.242,2.797,4.672,6.068,9.898,3.811c21.565-9.307,38.84-26.47,48.918-47.698    C251.167,255.081,249.573,250.608,245.832,248.832z" fill="#e81043"/>
	</g>
</g>
<g>
	<g>
		<path d="M474.113,104.044c-5.842-12.207-16.088-21.407-28.85-25.907L341.838,41.664c-12.364-4.359-25.756-3.788-37.704,1.609    l-16.952,7.658C272.288,20.787,241.222,0,205.385,0c-50.278,0-91.184,40.904-91.184,91.184c0,2.192,0.099,4.36,0.251,6.513    c-5.902,2.292-11.643,5.01-17.155,8.17c-18.67,10.703-34.474,26.07-45.7,44.44c-2.16,3.534-1.046,8.15,2.488,10.311    c3.532,2.159,8.149,1.047,10.311-2.488c12.646-20.692,31.013-36.281,52.423-45.296c2.557,10.458,6.917,20.212,12.741,28.915    c-4.212,6.115-6.685,13.515-6.685,21.485c0,20.938,17.034,37.972,37.972,37.972s37.972-17.034,37.972-37.972    s-17.034-37.972-37.972-37.972c-7.452,0-14.404,2.166-20.275,5.89c-4.373-7.061-7.634-14.878-9.513-23.217    c9.556-2.582,19.55-3.941,29.789-3.941c62.282,0,112.952,50.67,112.952,112.952s-50.67,112.952-112.952,112.952    S47.896,279.227,47.896,216.945c0-11.033,1.586-21.934,4.713-32.398c1.187-3.969-1.069-8.147-5.038-9.333    c-3.971-1.188-8.146,1.07-9.333,5.038c-3.545,11.859-5.342,24.205-5.342,36.692c0,54.101,33.753,100.466,81.306,119.148v36.398    c0,10.204,4.579,19.701,12.563,26.055l11.934,9.498l-11.934,9.498c-7.984,6.354-12.563,15.851-12.563,26.055v12.655    c0,12.184,6.664,23.339,17.391,29.114l44.719,24.081c3.167,1.705,6.605,2.555,10.038,2.555c3.74,0,7.474-1.009,10.84-3.02    c6.453-3.854,10.307-10.645,10.307-18.162V336.092c47.552-18.682,81.306-65.047,81.306-119.148    c0-23.086-6.147-44.761-16.888-63.48c0.658-0.703,1.308-1.413,1.944-2.136c0.294,0.113,5.539,2.472,11.987,2.245    c13.795-0.488,26.759-8.607,31.604-22.347c6.139-17.409-3.03-36.568-20.439-42.706c-8.435-2.973-17.521-2.484-25.587,1.375    c-8.066,3.86-14.146,10.631-17.12,19.064c-2.349,6.662-2.45,13.577-0.712,19.924c-7.371-7.759-15.706-14.592-24.806-20.316    c-0.476-8.574,4.431-16.796,12.347-20.372l69.179-31.252c8.409-3.801,17.834-4.203,26.541-1.133L440.28,92.283    c8.983,3.167,16.195,9.644,20.308,18.236c4.112,8.592,4.632,18.271,1.464,27.255l-27.879,79.059    c-6.539,18.545-26.948,28.309-45.49,21.771l-74.78-26.37c-3.906-1.376-8.188,0.673-9.567,4.579    c-1.377,3.906,0.673,8.189,4.579,9.567l74.78,26.37c5.513,1.943,11.208,2.91,16.886,2.91c7.466,0,14.898-1.672,21.833-4.99    c12.206-5.842,21.406-16.088,25.907-28.85l27.879-79.059C480.694,130,479.955,116.249,474.113,104.044z M160.849,140.259    c22.113,1.042,24.066,20.822,22.948,23.957c-13.191-3.905-24.897-11.287-34.055-21.084    C153.036,141.304,156.826,140.07,160.849,140.259z M139.673,154.328c10.517,10.938,23.73,19.262,38.558,23.898    c-4.216,4.881-10.443,7.979-17.383,7.979c-12.667,0-22.973-10.306-22.973-22.973C137.876,160.076,138.516,157.067,139.673,154.328    z M189.496,496.104c-0.901,0.537-3.299,1.629-6.074,0.135l-44.719-24.081c-5.861-3.155-9.502-9.251-9.502-15.907v-12.655    c0-5.607,2.517-10.826,6.903-14.318l19.308-15.366c1.788-1.423,2.83-3.583,2.83-5.868s-1.042-4.445-2.83-5.868l-19.308-15.366    c-4.387-3.492-6.903-8.711-6.903-14.318v-31.559c10.125,2.586,20.728,3.964,31.647,3.964c10.919,0,21.522-1.378,31.647-3.964    v149.884h0.001C192.495,493.972,190.397,495.565,189.496,496.104z M295.605,104.394c7.217,4.472,10.633,13.517,7.696,21.845    c-2.966,8.409-11.432,13.334-19.943,12.162C289.559,128.198,293.812,116.69,295.605,104.394z M268.448,113.947    c3.32-10.129,11.319-11.324,12.281-11.605c-1.499,10.159-5.019,19.662-10.125,28.107    C267.431,125.758,266.552,119.73,268.448,113.947z M234.954,74.525c-10.847,4.9-18.398,14.899-20.565,26.225    c-16.298-7.54-34.436-11.757-53.542-11.757c-10.703,0-21.324,1.356-31.608,3.97C129.755,50.197,163.376,15,205.385,15    c29.766,0,55.573,17.172,68.1,42.119L234.954,74.525z" fill="#e81043"/>
	</g>
</g>
<g>
</g>
<g>
</g>
<g>
</g>
<g>
</g>
<g>
</g>
<g>
</g>
<g>
</g>
<g>
</g>
<g>
</g>
<g>
</g>
<g>
</g>
<g>
</g>
<g>
</g>
<g>
</g>
<g>
</g>
</svg>
